<?xml version="1.0" encoding="UTF-8"?>
<svg width="1440px" height="930px" viewBox="0 0 1440 930" version="1.1" xmlns="http://www.w3.org/2000/svg" xmlns:xlink="http://www.w3.org/1999/xlink">
    <!-- Generator: Sketch 47.1 (45422) - http://www.bohemiancoding.com/sketch -->
    <title>bg-work</title>
    <desc>Created with Sketch.</desc>
    <defs>
        <polygon id="path-1" points="0 930 1440 930 1440 0 0 0"></polygon>
    </defs>
    <g id="Page-1" stroke="none" stroke-width="1" fill="none" fill-rule="evenodd">
        <g id="bg-work">
            <mask id="mask-2" fill="white">
                <use xlink:href="#path-1"></use>
            </mask>
            <use id="Fill-1" fill="#A2E0C1" fill-rule="nonzero" xlink:href="#path-1"></use>
            <g id="Group" mask="url(#mask-2)" fill-rule="nonzero">
                <g transform="translate(-97.000000, -1.000000)">
                    <path d="M203.2409,250.9128 C224.8869,240.1618 228.3699,209.6938 220.2699,186.9228 C203.2329,139.0278 144.9109,110.3898 96.5949,126.1948 L96.5949,486.2758 C99.6049,486.1518 102.6129,485.9218 105.6119,485.5668 C150.9949,480.1918 192.2339,448.2318 208.7619,405.6238 C230.9559,422.5598 266.6239,409.1848 278.5809,383.9578 C290.5399,358.7298 282.8529,327.7078 266.5099,305.0728 C250.1669,282.4378 226.4479,266.4328 203.2409,250.9128 Z" id="Fill-2" fill="#77C79F"></path>
                    <path d="M173.8635,473.0381 C190.9845,473.0381 204.8635,486.9171 204.8635,504.0381 C204.8635,521.1591 190.9845,535.0381 173.8635,535.0381 C156.7435,535.0381 142.8635,521.1591 142.8635,504.0381 C142.8635,486.9171 156.7435,473.0381 173.8635,473.0381 Z" id="Fill-4" fill="#FCF5EB"></path>
                    <path d="M731.803097,852.048624 C678.922816,839.89686 620.715402,853.665357 578.882455,888.218967 C533.075378,850.62691 460.15469,851.490852 415.249951,890.157025 C395.523797,833.708818 350.972718,786.442639 295.788594,763.413299 C240.60548,740.384969 159.707229,733.662394 81.867633,796.880667 L81.867633,824.943097 C53.3373608,849.380006 19.7184239,890.051937 0.852168815,931.4999 L805.608946,931.4999 C805.525078,931.046205 805.446262,930.59453 805.373509,930.149929 C803.099979,916.440039 800.115087,902.530079 792.953974,890.620825 C780.188862,869.39212 755.944952,857.596037 731.803097,852.048624 Z" id="Fill-6" fill="#77C79F"></path>
                    <path d="M1142.8156,1 C1123.9526,31.467 1120.9646,71.745 1136.5596,104.18 C1154.9986,142.53 1198.2196,167.444 1240.6476,164.178 C1236.7086,184.892 1232.7686,205.605 1228.8296,226.319 C1225.9106,241.666 1223.0396,257.839 1228.0816,272.626 C1233.2066,287.66 1245.8456,298.965 1259.3996,307.249 C1285.4306,323.159 1316.7086,330.322 1347.0696,327.327 C1345.4426,365.373 1375.4936,400.476 1412.1066,410.943 C1448.7206,421.41 1489.2316,410.121 1519.8966,387.544 C1524.6126,384.072 1529.3176,380.256 1534.9796,378.764 C1535.6826,378.579 1536.3876,378.445 1537.0946,378.333 L1537.0946,1 L1142.8156,1 Z" id="Fill-8" fill="#77C79F"></path>
                    <path d="M1237.71102,478.932988 C1204.20099,484.895883 1179.22633,510.086679 1170.31907,542.936637 C1144.04546,545.143586 1117.26541,550.268413 1094.98614,564.366189 C1072.7058,578.465025 1055.64035,603.061438 1056.53351,629.411332 C1057.42562,655.762285 1080.35755,681.228552 1106.6693,679.551355 C1091.61479,699.8822 1092.7866,729.598142 1106.38641,750.93022 C1119.98728,772.261238 1144.16307,785.470089 1169.13773,789.507863 C1194.11132,793.546697 1219.82869,789.200607 1243.84026,781.233128 C1246.79628,780.252026 1249.9197,779.202056 1252.96472,779.862128 C1256.54161,780.637686 1259.17554,783.570396 1261.69716,786.224457 C1288.32676,814.260024 1330.87543,826.019472 1368.12234,815.639499 C1405.37136,805.260586 1435.70499,773.190424 1443.9988,735.423302 C1464.75027,746.704913 1492.83775,730.897096 1499.56455,708.253351 C1506.29029,685.609606 1495.83933,660.668854 1479.24006,643.864042 C1462.63973,627.05923 1440.73446,616.753423 1419.31763,606.786658 C1436.02073,594.991187 1434.98241,569.065095 1425.25615,551.076815 C1404.80029,513.241885 1352.32299,496.861935 1313.97738,516.341997 C1296.45317,487.801046 1275.20585,472.260224 1237.71102,478.932988 Z" id="Fill-10" fill="#77C79F"></path>
                    <path d="M124.8675,680.9735 C129.0445,663.9065 118.5935,646.6855 101.5275,642.5095 C87.1775,638.9975 72.7225,645.8275 66.0005,658.2335 L66.0005,688.5795 C70.1305,696.1885 77.3325,702.0935 86.4035,704.3135 C103.4695,708.4895 120.6915,698.0405 124.8675,680.9735 Z" id="Fill-12" fill="#FCF5EB"></path>
                    <path d="M98.5262,662.5066 C104.6862,664.4626 108.0962,671.0416 106.1402,677.2026 C104.1842,683.3626 97.6042,686.7716 91.4432,684.8156 C85.2832,682.8596 81.8752,676.2796 83.8312,670.1196 C85.7862,663.9586 92.3662,660.5506 98.5262,662.5066 Z" id="Fill-14" fill="#A2E0C1"></path>
                    <path d="M237.2327,542.0194 C265.1137,548.8414 282.1847,576.9744 275.3627,604.8554 C268.5407,632.7354 240.4077,649.8074 212.5267,642.9844 C184.6457,636.1624 167.5747,608.0294 174.3967,580.1484 C181.2187,552.2674 209.3517,535.1964 237.2327,542.0194 Z" id="Fill-16" fill="#FCF5EB"></path>
                    <path d="M227.6905,581.0146 C234.0295,582.5656 237.9105,588.9616 236.3595,595.3006 C234.8085,601.6396 228.4125,605.5206 222.0735,603.9696 C215.7345,602.4186 211.8535,596.0226 213.4045,589.6836 C214.9555,583.3446 221.3515,579.4636 227.6905,581.0146 Z" id="Fill-18" fill="#A2E0C1"></path>
                    <path d="M217.5651,583.4842 L90.1871,662.5632 C83.6511,666.6202 81.6011,673.5032 85.2001,679.3022 C88.8061,685.1122 95.8901,686.3352 102.4251,682.2792 L229.8021,603.2002 C233.1591,601.1162 235.3641,598.3232 236.1791,595.1242 C236.9271,592.1892 236.4131,589.0822 234.7341,586.3772 C233.0671,583.6922 230.5391,581.8832 227.6141,581.2832 C226.8691,581.1302 226.1091,581.0542 225.3381,581.0542 C222.8021,581.0542 220.1541,581.8762 217.5651,583.4842 Z M78.4221,683.5102 C72.4421,673.8752 75.6191,662.2152 85.9791,655.7842 L213.3571,576.7052 C218.4991,573.5132 223.9841,572.3932 229.2181,573.4672 C234.3121,574.5122 238.6781,577.6022 241.5131,582.1692 C244.3481,586.7362 245.1991,592.0362 243.9111,597.0942 C242.5961,602.2562 239.0801,606.8312 234.0101,609.9782 L106.6331,689.0572 C102.7091,691.4922 98.5681,692.6712 94.6141,692.6712 C88.1271,692.6722 82.1411,689.5022 78.4221,683.5102 Z" id="Fill-20" fill="#F4E6D4"></path>
                    <path d="M285.6613,504.3179 C280.2763,498.9329 280.2763,490.2019 285.6613,484.8169 C291.0463,479.4319 299.7773,479.4319 305.1623,484.8169 C310.5483,490.2019 310.5483,498.9329 305.1623,504.3179 C299.7773,509.7029 291.0463,509.7029 285.6613,504.3179 Z" id="Fill-22" fill="#7A7482"></path>
                    <path d="M301.6363,482.2624 L283.1063,500.7914 C283.7503,502.0624 284.6003,503.2554 285.6613,504.3174 C286.7243,505.3794 287.9173,506.2294 289.1873,506.8724 L307.7173,488.3434 C307.0733,487.0724 306.2243,485.8784 305.1623,484.8164 C304.1003,483.7544 302.9073,482.9054 301.6363,482.2624 Z" id="Fill-24" fill="#413D45"></path>
                    <path d="M309.9045,763.081 C309.9045,758.697 306.3505,755.144 301.9675,755.144 L293.9505,755.144 C290.4975,755.144 287.4655,752.899 286.4025,749.614 C285.2335,746.003 283.7825,742.521 282.0745,739.191 C280.5085,736.14 281.1205,732.423 283.5455,729.999 L289.2075,724.337 C292.3065,721.237 292.3065,716.212 289.2075,713.113 L277.4935,701.399 C274.3935,698.3 269.3695,698.3 266.2695,701.399 L260.6075,707.062 C258.1825,709.486 254.4665,710.097 251.4155,708.532 C248.0865,706.824 244.6025,705.373 240.9925,704.204 C237.7075,703.141 235.4625,700.109 235.4625,696.656 L235.4625,688.639 C235.4625,684.255 231.9095,680.702 227.5255,680.702 L210.9605,680.702 C206.5775,680.702 203.0235,684.255 203.0235,688.639 L203.0235,696.656 C203.0235,700.109 200.7785,703.141 197.4935,704.204 C193.8835,705.373 190.3995,706.824 187.0705,708.532 C184.0195,710.097 180.3025,709.486 177.8785,707.062 L172.2165,701.399 C169.1175,698.3 164.0925,698.3 160.9925,701.399 L149.2785,713.113 C146.1795,716.212 146.1795,721.237 149.2785,724.337 L154.9405,729.999 C157.3655,732.423 157.9765,736.14 156.4115,739.191 C154.7035,742.52 153.2525,746.003 152.0845,749.614 C151.0205,752.899 147.9885,755.144 144.5355,755.144 L136.5175,755.144 C132.1345,755.144 128.5815,758.697 128.5815,763.081 L128.5815,779.646 C128.5815,784.029 132.1345,787.583 136.5175,787.583 L144.5355,787.583 C147.9885,787.583 151.0205,789.828 152.0845,793.113 C153.2525,796.724 154.7035,800.207 156.4115,803.536 C157.9765,806.587 157.3655,810.304 154.9405,812.728 L149.2785,818.39 C146.1795,821.489 146.1795,826.515 149.2785,829.614 L160.9925,841.328 C164.0925,844.427 169.1175,844.427 172.2165,841.328 L177.8785,835.666 C180.3025,833.241 184.0195,832.629 187.0705,834.195 C190.3995,835.903 193.8835,837.354 197.4935,838.522 C200.7785,839.586 203.0235,842.618 203.0235,846.071 L203.0235,854.088 C203.0235,858.471 206.5775,862.025 210.9605,862.025 L227.5255,862.025 C231.9095,862.025 235.4625,858.471 235.4625,854.088 L235.4625,846.071 C235.4625,842.618 237.7075,839.586 240.9925,838.522 C244.6025,837.354 248.0865,835.903 251.4155,834.195 C254.4665,832.629 258.1825,833.241 260.6075,835.666 L266.2695,841.328 C269.3695,844.427 274.3935,844.427 277.4935,841.328 L289.2075,829.614 C292.3065,826.515 292.3065,821.489 289.2075,818.39 L283.5455,812.728 C281.1205,810.304 280.5085,806.587 282.0745,803.536 C283.7825,800.207 285.2335,796.724 286.4025,793.113 C287.4655,789.828 290.4975,787.583 293.9505,787.583 L301.9675,787.583 C306.3505,787.583 309.9045,784.029 309.9045,779.646 L309.9045,763.081 Z" id="Fill-26" fill="#F5C471"></path>
                    <path d="M237.147639,799.570241 C250.707639,790.936241 256.081639,773.379241 249.679639,758.633241 C241.539639,739.889241 218.721639,732.904241 201.483639,743.882241 C187.925639,752.517241 182.551639,770.075241 188.954639,784.820241 C197.095639,803.563241 219.911639,810.547241 237.147639,799.570241 Z" id="Fill-28" fill="#F7ECDC" transform="translate(219.316799, 771.726036) rotate(-79.000000) translate(-219.316799, -771.726036) "></path>
                    <path d="M253.92091,756.463335 C253.03591,753.714335 251.60391,751.050335 249.41191,748.655335 C242.71691,741.341335 231.66891,739.393335 222.99091,744.191335 C212.72891,749.865335 208.87791,762.741335 214.39991,773.136335 C217.15991,778.330335 221.74491,781.928335 226.94391,783.567335 C230.31191,782.985335 233.64591,781.869335 236.82891,780.178335 C246.26091,775.167335 252.26891,766.239335 253.92091,756.463335 Z" id="Fill-30" fill="#413D45" transform="translate(232.899677, 762.566784) rotate(-79.000000) translate(-232.899677, -762.566784) "></path>
                    <path d="M505.7756,652.6998 C505.7756,647.4748 501.5406,643.2388 496.3146,643.2388 L486.7576,643.2388 C482.6416,643.2388 479.0276,640.5628 477.7596,636.6468 C476.3676,632.3428 474.6366,628.1908 472.6006,624.2218 C470.7346,620.5848 471.4636,616.1548 474.3536,613.2638 L481.1026,606.5148 C484.7976,602.8208 484.7976,596.8298 481.1026,593.1358 L467.1396,579.1728 C463.4456,575.4778 457.4556,575.4778 453.7606,579.1728 L447.0106,585.9218 C444.1216,588.8118 439.6906,589.5408 436.0536,587.6748 C432.0856,585.6388 427.9326,583.9088 423.6296,582.5158 C419.7126,581.2488 417.0366,577.6338 417.0366,573.5178 L417.0366,563.9608 C417.0366,558.7358 412.8006,554.4998 407.5756,554.4998 L387.8286,554.4998 C382.6036,554.4998 378.3686,558.7358 378.3686,563.9608 L378.3686,573.5178 C378.3686,577.6338 375.6916,581.2488 371.7756,582.5158 C367.4716,583.9088 363.3196,585.6388 359.3506,587.6748 C355.7136,589.5408 351.2836,588.8118 348.3926,585.9218 L341.6436,579.1728 C337.9496,575.4778 331.9596,575.4778 328.2646,579.1728 L314.3006,593.1358 C310.6066,596.8298 310.6066,602.8208 314.3006,606.5148 L321.0496,613.2638 C323.9406,616.1548 324.6706,620.5848 322.8036,624.2218 C320.7676,628.1908 319.0376,632.3428 317.6446,636.6468 C316.3776,640.5628 312.7626,643.2388 308.6466,643.2388 L299.0886,643.2388 C293.8646,643.2388 289.6296,647.4748 289.6296,652.6998 L289.6296,672.4468 C289.6296,677.6718 293.8646,681.9078 299.0886,681.9078 L308.6466,681.9078 C312.7626,681.9078 316.3776,684.5838 317.6446,688.4998 C319.0376,692.8038 320.7676,696.9558 322.8036,700.9248 C324.6706,704.5618 323.9406,708.9918 321.0496,711.8828 L314.3006,718.6318 C310.6066,722.3258 310.6066,728.3168 314.3006,732.0108 L328.2646,745.9738 C331.9596,749.6688 337.9496,749.6688 341.6436,745.9738 L348.3926,739.2248 C351.2836,736.3348 355.7136,735.6058 359.3506,737.4718 C363.3196,739.5088 367.4716,741.2388 371.7756,742.6308 C375.6916,743.8988 378.3686,747.5128 378.3686,751.6298 L378.3686,761.1858 C378.3686,766.4108 382.6036,770.6468 387.8286,770.6468 L407.5756,770.6468 C412.8006,770.6468 417.0366,766.4108 417.0366,761.1858 L417.0366,751.6298 C417.0366,747.5128 419.7126,743.8988 423.6296,742.6308 C427.9326,741.2388 432.0856,739.5088 436.0536,737.4718 C439.6906,735.6058 444.1216,736.3348 447.0106,739.2248 L453.7606,745.9748 C457.4556,749.6688 463.4456,749.6688 467.1396,745.9738 L481.1026,732.0108 C484.7976,728.3168 484.7976,722.3258 481.1026,718.6318 L474.3536,711.8828 C471.4636,708.9918 470.7346,704.5618 472.6006,700.9248 C474.6366,696.9558 476.3676,692.8038 477.7596,688.4998 C479.0276,684.5838 482.6416,681.9078 486.7576,681.9078 L496.3146,681.9078 C501.5406,681.9078 505.7756,677.6718 505.7756,672.4468 L505.7756,652.6998 Z" id="Fill-32" fill="#7A7482"></path>
                    <path d="M419.8992,671.446 C419.2812,672.175 413.1272,679.045 400.1412,679.428 C386.3642,679.831 378.0222,671.098 377.5772,670.62 C358.6372,649.058 329.4002,674.373 348.2662,696.278 C349.1772,697.336 354.1582,702.88 362.7822,708.132 C373.8402,714.868 386.3992,718.399 399.2282,718.399 C399.9132,718.399 400.6002,718.389 401.2862,718.369 C414.7742,717.972 427.4562,714.014 437.9602,706.922 C445.9202,701.549 450.1562,696.091 451.2662,694.546 C457.5392,685.808 455.5412,673.637 446.8022,667.363 C438.1912,661.181 426.2492,663.031 419.8992,671.446 Z" id="Fill-34" fill="#F5C471"></path>
                    <path d="M370.8876,694.8239 C364.0056,690.6319 360.2306,686.2919 360.0736,686.1089 C358.6686,684.4789 358.8526,682.0189 360.4836,680.6149 C362.1106,679.2139 364.5646,679.3939 365.9696,681.0159 C366.0026,681.0529 369.2676,684.7609 375.1896,688.3189 C383.0136,693.0209 391.5626,695.2699 400.5986,695.0039 C409.6466,694.7379 417.7176,692.2959 424.5866,687.7459 C429.7436,684.3309 432.2636,680.9329 432.2886,680.8989 C435.8156,675.9859 442.1456,680.5299 438.6066,685.4589 C438.1216,686.1349 426.4156,702.0389 400.8286,702.7929 C400.2956,702.8079 399.7626,702.8159 399.2316,702.8159 C389.2636,702.8159 379.4976,700.0669 370.8876,694.8239 Z" id="Fill-36" fill="#413D45"></path>
                    <path d="M377.591298,649.482679 C381.628298,659.441679 392.520298,665.100679 402.990298,662.674679 C416.299298,659.591679 423.652298,645.434679 418.520298,632.772679 C414.483298,622.812679 403.590298,617.155679 393.121298,619.581679 C379.812298,622.665679 372.461298,636.821679 377.591298,649.482679 Z" id="Fill-38" fill="#F7ECDC" transform="translate(398.056198, 641.128116) rotate(-7.000000) translate(-398.056198, -641.128116) "></path>
                    <path d="M391.354624,662.895436 C393.268624,662.647436 395.193624,662.028436 397.033624,660.876436 C402.652624,657.359436 405.269624,650.331436 403.165624,644.045436 C400.677624,636.612436 392.677624,632.522436 385.174624,634.895436 C381.425624,636.081436 378.505624,638.660436 376.798624,641.880436 C376.773624,644.164436 377.103624,646.492436 377.830624,648.789436 C379.983624,655.597436 385.127624,660.627436 391.354624,662.895436 Z" id="Fill-40" fill="#413D45" transform="translate(390.343238, 648.558347) rotate(-7.000000) translate(-390.343238, -648.558347) "></path>
                    <path d="M176.6905,493.0146 C183.0295,494.5656 186.9105,500.9616 185.3595,507.3006 C183.8085,513.6396 177.4125,517.5206 171.0735,515.9696 C164.7345,514.4186 160.8535,508.0226 162.4045,501.6836 C163.9555,495.3446 170.3515,491.4636 176.6905,493.0146 Z" id="Fill-42" fill="#A2E0C1"></path>
                    <path d="M234.5195,585.7368 L184.5625,499.6628 C180.6835,493.0198 173.8585,490.7838 167.9645,494.2258 C162.0595,497.6728 160.6445,504.7208 164.5235,511.3638 L214.4805,597.4358 C216.4725,600.8478 219.2045,603.1278 222.3805,604.0298 C225.2945,604.8558 228.4135,604.4268 231.1635,602.8208 C233.8925,601.2278 235.7695,598.7488 236.4485,595.8418 C236.6215,595.1008 236.7175,594.3428 236.7385,593.5728 C236.8065,591.0378 236.0565,588.3688 234.5195,585.7368 Z M163.9415,487.3358 C173.7345,481.6178 185.3035,485.1098 191.4525,495.6398 L241.4095,581.7128 C244.4615,586.9408 245.4325,592.4538 244.2175,597.6558 C243.0355,602.7198 239.8285,607.0008 235.1865,609.7108 C230.5455,612.4218 225.2225,613.1298 220.2025,611.7048 C215.0785,610.2508 210.5985,606.6128 207.5905,601.4598 L157.6335,515.3858 C155.3045,511.3988 154.2395,507.2268 154.3455,503.2748 C154.5205,496.7898 157.8505,490.8918 163.9415,487.3358 Z" id="Fill-44" fill="#F4E6D4"></path>
                    <path d="M1380.54019,631.03858 C1385.9256,636.423353 1385.9256,645.154777 1380.54019,650.53955 C1375.15527,655.924817 1366.4241,655.924817 1361.03869,650.53955 C1355.65377,645.154777 1355.65377,636.423353 1361.03869,631.03858 C1366.4241,625.653807 1375.15527,625.653807 1380.54019,631.03858" id="Fill-46" fill="#7A7482"></path>
                    <path d="M1360.55439,631.554322 C1359.49233,632.616358 1358.64317,633.809791 1358,635.080778 L1376.52934,653.609613 C1377.80036,652.966464 1378.99383,652.117328 1380.05589,651.055292 C1381.11796,649.993255 1381.96712,648.799822 1382.61028,647.528836 L1364.08094,629 C1362.80992,629.64315 1361.61596,630.492285 1360.55439,631.554322" id="Fill-48" fill="#413D45"></path>
                    <path d="M345.6516,863.5767 C345.6516,869.3877 340.9406,874.0977 335.1306,874.0977 C329.3186,874.0977 324.6086,869.3877 324.6086,863.5767 C324.6086,857.7657 329.3186,853.0557 335.1306,853.0557 C340.9406,853.0557 345.6516,857.7657 345.6516,863.5767" id="Fill-50" fill="#A2E0C1"></path>
                    <path d="M1300.043,576.521 C1300.043,582.332 1295.332,587.043 1289.522,587.043 C1283.711,587.043 1279,582.332 1279,576.521 C1279,570.71 1283.711,566 1289.522,566 C1295.332,566 1300.043,570.71 1300.043,576.521" id="Fill-52" fill="#A2E0C1"></path>
                    <path d="M514.7214,822.0796 C507.7154,822.0796 502.0354,816.3986 502.0354,809.3916 C502.0354,802.3846 507.7154,796.7036 514.7214,796.7036 C521.7284,796.7036 527.4094,802.3846 527.4094,809.3916 C527.4094,816.3986 521.7284,822.0796 514.7214,822.0796 Z" id="Fill-54" fill="#77C79F"></path>
                    <path d="M1513.5529,585.5967 C1513.5529,592.6037 1507.8719,598.2837 1500.8649,598.2837 C1493.8589,598.2837 1488.1779,592.6037 1488.1779,585.5967 C1488.1779,578.5897 1493.8589,572.9087 1500.8649,572.9087 C1507.8719,572.9087 1513.5529,578.5897 1513.5529,585.5967" id="Fill-56" fill="#77C79F"></path>
                    <path d="M1467.8873,525.468868 C1465.3673,524.366868 1463.7433,521.842868 1463.8503,519.093868 C1463.9603,516.289868 1463.8463,513.440868 1463.4903,510.564868 C1463.1743,508.020868 1462.6763,505.544868 1462.0163,503.143868 C1461.2883,500.493868 1462.3133,497.670868 1464.5163,496.027868 L1471.9303,490.497868 C1474.9153,488.270868 1475.5313,484.044868 1473.3033,481.058868 L1463.5653,468.001868 C1461.3383,465.015868 1457.1123,464.400868 1454.1253,466.627868 L1446.6963,472.169868 C1444.4803,473.821868 1441.4753,473.964868 1439.1293,472.503868 C1434.7063,469.751868 1429.8663,467.646868 1424.7463,466.304868 C1422.0963,465.609868 1420.1513,463.345868 1419.8143,460.625868 L1418.6113,450.916868 C1418.1533,447.219868 1414.7843,444.593868 1411.0873,445.051868 L1394.3013,447.131868 C1390.6053,447.590868 1387.9793,450.958868 1388.4383,454.654868 L1389.6403,464.361868 C1389.9763,467.073868 1388.6593,469.747868 1386.2643,471.063868 C1382.1553,473.320868 1378.4013,476.103868 1375.0813,479.314868 C1373.0993,481.231868 1370.1293,481.705868 1367.6233,480.554868 L1359.3053,476.735868 C1355.9203,475.180868 1351.9153,476.664868 1350.3623,480.049868 L1343.6173,494.738868 C1342.0623,498.124868 1343.5463,502.128868 1346.9323,503.682868 L1355.2463,507.501868 C1357.7573,508.653868 1359.3253,511.220868 1359.1643,513.978868 C1358.9853,517.086868 1359.0783,520.253868 1359.4743,523.452868 C1359.7463,525.649868 1360.1533,527.794868 1360.6823,529.884868 C1361.3603,532.559868 1360.3143,535.373868 1358.0733,536.982868 L1350.5003,542.420868 C1347.4753,544.592868 1346.7843,548.807868 1348.9553,551.833868 L1358.5023,565.127868 C1360.6753,568.153868 1364.8893,568.844868 1367.9143,566.671868 L1375.4893,561.233868 C1377.7253,559.627868 1380.7243,559.523868 1383.0363,561.018868 C1387.6763,564.020868 1392.8023,566.299868 1398.2383,567.719868 C1400.8823,568.410868 1402.8153,570.681868 1403.1513,573.394868 L1404.4443,583.380868 C1404.9223,587.074868 1408.3053,589.680868 1412.0003,589.201868 L1428.7743,587.027868 C1432.4673,586.549868 1435.0753,583.165868 1434.5953,579.471868 L1433.3383,569.771868 C1432.9953,567.000868 1434.3303,564.260868 1436.7763,562.912868 C1441.1353,560.508868 1445.0923,557.509868 1448.5553,554.038868 C1450.4953,552.093868 1453.4533,551.583868 1455.9693,552.684868 L1464.4023,556.373868 C1467.8153,557.866868 1471.7913,556.310868 1473.2843,552.897868 L1479.7863,538.035868 C1481.2783,534.623868 1479.7223,530.646868 1476.3093,529.153868 L1467.8873,525.468868 Z" id="Fill-58" fill="#FCF5EB"></path>
                    <path d="M1548.93489,723.432201 C1546.41489,722.330201 1544.79089,719.806201 1544.89789,717.057201 C1545.00789,714.253201 1544.89389,711.404201 1544.53789,708.528201 C1544.22189,705.984201 1543.72389,703.508201 1543.06389,701.107201 C1542.33589,698.457201 1543.36089,695.634201 1545.56389,693.991201 L1552.97789,688.461201 C1555.96289,686.234201 1556.57889,682.008201 1554.35089,679.022201 L1544.61289,665.965201 C1542.38589,662.979201 1538.15989,662.364201 1535.17289,664.591201 L1527.74389,670.133201 C1525.52789,671.785201 1522.52289,671.928201 1520.17689,670.467201 C1515.75389,667.715201 1510.91389,665.610201 1505.79389,664.268201 C1503.14389,663.573201 1501.19889,661.309201 1500.86189,658.589201 L1499.65889,648.880201 C1499.20089,645.183201 1495.83189,642.557201 1492.13489,643.015201 L1475.34889,645.095201 C1471.65289,645.554201 1469.02689,648.922201 1469.48589,652.618201 L1470.68789,662.325201 C1471.02389,665.037201 1469.70689,667.711201 1467.31189,669.027201 C1463.20289,671.284201 1459.44889,674.067201 1456.12889,677.278201 C1454.14689,679.195201 1451.17689,679.669201 1448.67089,678.518201 L1440.35289,674.699201 C1436.96789,673.144201 1432.96289,674.628201 1431.40989,678.013201 L1424.66489,692.702201 C1423.10989,696.088201 1424.59389,700.092201 1427.97989,701.646201 L1436.29389,705.465201 C1438.80489,706.617201 1440.37289,709.184201 1440.21189,711.942201 C1440.03289,715.050201 1440.12589,718.217201 1440.52189,721.416201 C1440.79389,723.613201 1441.20089,725.758201 1441.72989,727.848201 C1442.40789,730.523201 1441.36189,733.337201 1439.12089,734.946201 L1431.54789,740.384201 C1428.52289,742.556201 1427.83189,746.771201 1430.00289,749.797201 L1439.54989,763.091201 C1441.72289,766.117201 1445.93689,766.808201 1448.96189,764.635201 L1456.53689,759.197201 C1458.77289,757.591201 1461.77189,757.487201 1464.08389,758.982201 C1468.72389,761.984201 1473.84989,764.263201 1479.28589,765.683201 C1481.92989,766.374201 1483.86289,768.645201 1484.19889,771.358201 L1485.49189,781.344201 C1485.96989,785.038201 1489.35289,787.644201 1493.04789,787.165201 L1509.82189,784.991201 C1513.51489,784.513201 1516.12289,781.129201 1515.64289,777.435201 L1514.38589,767.735201 C1514.04289,764.964201 1515.37789,762.224201 1517.82389,760.876201 C1522.18289,758.472201 1526.13989,755.473201 1529.60289,752.002201 C1531.54289,750.057201 1534.50089,749.547201 1537.01689,750.648201 L1545.44989,754.337201 C1548.86289,755.830201 1552.83889,754.274201 1554.33189,750.861201 L1560.83389,735.999201 C1562.32589,732.587201 1560.76989,728.610201 1557.35689,727.117201 L1548.93489,723.432201 Z" id="Fill-58" fill="#7A7482" transform="translate(1492.724039, 715.092642) rotate(7.000000) translate(-1492.724039, -715.092642) "></path>
                    <path d="M1531.8517,924.4365 L1536.0947,926.8275 L1536.0947,931.4995 L1514.2357,931.4995 C1517.8507,929.7325 1521.2377,927.5665 1524.3287,925.0485 C1526.4617,923.3095 1529.4547,923.0845 1531.8517,924.4365" id="Fill-60" fill="#A2E0C1"></path>
                    <path d="M1484.35981,737.782316 C1471.42681,732.788316 1466.05481,717.517316 1473.01281,705.526316 C1478.48781,696.093316 1490.23881,691.958316 1500.41381,695.886316 C1513.34781,700.879316 1518.71981,716.152316 1511.76081,728.144316 C1506.28681,737.577316 1494.53481,741.710316 1484.35981,737.782316" id="Fill-65" fill="#FCF5EB" transform="translate(1492.387128, 716.834478) rotate(20.000000) translate(-1492.387128, -716.834478) "></path>
                    <path d="M1475.24887,704.826233 C1478.38187,698.292233 1484.26687,693.970233 1490.84687,692.577233 C1492.73487,693.099233 1494.58087,693.996233 1496.26587,695.415233 C1501.41087,699.749233 1503.03987,707.183233 1500.02987,713.200233 C1496.47187,720.314233 1487.85087,723.286233 1480.64887,719.833233 C1477.05187,718.107233 1474.48387,715.100233 1473.22787,711.621233 C1473.52787,709.322233 1474.19187,707.031233 1475.24887,704.826233" id="Fill-67" fill="#413D45" transform="translate(1487.381657, 706.925046) rotate(20.000000) translate(-1487.381657, -706.925046) "></path>
                    <path d="M1392.79895,523.883321 C1398.03795,536.818321 1413.49795,541.973321 1425.45195,534.772321 C1434.85595,529.107321 1438.82295,517.211321 1434.70195,507.035321 C1429.46295,494.099321 1414.00295,488.944321 1402.04795,496.146321 C1392.64495,501.811321 1388.67795,513.708321 1392.79895,523.883321" id="Fill-69" fill="#FED58C" transform="translate(1413.750443, 515.459000) rotate(21.000000) translate(-1413.750443, -515.459000) "></path>
                    <path d="M1420.28661,538.532611 C1426.81061,535.271611 1431.06461,529.277611 1432.35761,522.631611 C1431.80161,520.739611 1430.86861,518.896611 1429.41261,517.223611 C1424.96561,512.116611 1417.45561,510.599611 1411.44961,513.727611 C1404.34761,517.427611 1401.49861,526.153611 1405.09361,533.344611 C1406.88961,536.937611 1409.95861,539.471611 1413.47961,540.678611 C1415.78961,540.338611 1418.08461,539.632611 1420.28661,538.532611" id="Fill-71" fill="#413D45" transform="translate(1417.947869, 526.391810) rotate(21.000000) translate(-1417.947869, -526.391810) "></path>
                    <path d="M1507.4142,41.9634 C1514.6622,75.6854 1493.2022,108.8984 1459.4802,116.1474 C1425.7592,123.3954 1392.5452,101.9344 1385.2972,68.2134 C1379.3802,40.6874 1392.5942,13.5034 1415.9882,0.5004 L1476.6902,0.5004 C1491.8732,8.9454 1503.4762,23.6434 1507.4142,41.9634" id="Fill-73" fill="#FCF5EB"></path>
                    <path d="M1460.2345,52.0923 C1458.5875,44.4253 1451.0355,39.5463 1443.3695,41.1943 C1435.7025,42.8423 1430.8225,50.3933 1432.4705,58.0603 C1434.1195,65.7273 1441.6705,70.6063 1449.3375,68.9583 C1457.0045,67.3103 1461.8825,59.7593 1460.2345,52.0923" id="Fill-75" fill="#92D6B4"></path>
                    <path d="M1454.2687,43.1079 C1451.0707,40.9949 1447.2417,40.2549 1443.4867,41.0219 C1439.7307,41.7899 1436.4987,43.9739 1434.3867,47.1719 C1432.2747,50.3699 1431.5337,54.1989 1432.3007,57.9549 C1433.0687,61.7099 1435.2517,64.9409 1438.4537,67.0559 L1537.3987,132.5229 L1537.3987,143.0429 L1433.6157,74.3739 C1428.4617,70.9699 1424.9427,65.7629 1423.7067,59.7119 C1422.4687,53.6599 1423.6627,47.4889 1427.0667,42.3369 C1430.4707,37.1829 1435.6777,33.6639 1441.7297,32.4269 C1443.2877,32.1079 1444.8527,31.9509 1446.4067,31.9509 C1450.8897,31.9509 1455.2787,33.2609 1459.1067,35.7899 L1537.3987,87.5909 L1537.3987,98.1109 L1454.2687,43.1079 Z" id="Fill-77" fill="#F4E6D4"></path>
                    <path d="M1434.4485,74.8994 C1429.0115,71.5984 1425.3145,66.5514 1423.8555,60.5804 C1422.3955,54.6084 1423.3495,48.4254 1426.5415,43.1704 L1452.4525,0.5004 L1462.7155,0.5004 L1434.0395,47.7244 C1429.9635,54.4364 1432.1075,63.2144 1438.8215,67.2914 C1442.2555,69.3764 1446.0805,69.9664 1449.7765,69.0634 C1453.4715,68.1604 1456.5945,65.8724 1458.5695,62.6204 L1496.2925,0.5004 L1506.5555,0.5004 L1466.0675,67.1734 C1462.8775,72.4284 1457.8315,76.1264 1451.8595,77.5854 C1445.8845,79.0454 1439.7035,78.0904 1434.4485,74.8994 Z" id="Fill-79" fill="#F4E6D4"></path>
                    <path d="M1537.3986,157.2568 C1534.2916,153.0338 1531.9986,148.1088 1530.8256,142.6508 C1528.4336,131.5238 1531.1546,120.4918 1537.3986,111.9868 L1537.3986,157.2568 Z" id="Fill-81" fill="#FCF5EB"></path>
                </g>
            </g>
        </g>
    </g>
</svg>