<svg id="Layer_1" data-name="Layer 1" xmlns="http://www.w3.org/2000/svg" viewBox="0 0 327 296"><defs><style>.cls-1,.cls-9{fill:#73b5eb;}.cls-2{fill:#64a4d9;}.cls-3{fill:#828dab;}.cls-10,.cls-11,.cls-3,.cls-4,.cls-5,.cls-6,.cls-7,.cls-8,.cls-9{fill-rule:evenodd;}.cls-4{fill:#f5c471;}.cls-5{fill:#67626e;}.cls-6,.cls-8{fill:#4b5161;}.cls-6{stroke:#4b5161;stroke-miterlimit:10;stroke-width:0.25px;}.cls-7{fill:#fed58c;}.cls-10{fill:#f58b44;}.cls-11{fill:#fcf5eb;}</style></defs><title>Artboard 5 copy@H4WScienceCharacters</title><circle class="cls-1" cx="163.5" cy="148" r="122"/><circle class="cls-2" cx="163.5" cy="148" r="89.5"/><path class="cls-3" d="M119.54,280.67a6.63,6.63,0,0,1-1-.07,7.32,7.32,0,0,1-6.21-8.23l6.88-51.88a7.28,7.28,0,0,1,14.44,1.94l-6.88,51.88A7.3,7.3,0,0,1,119.54,280.67Z"/><path class="cls-3" d="M210.23,280.67a7.31,7.31,0,0,1-7.21-6.36l-6.88-51.88a7.28,7.28,0,1,1,14.44-1.94l6.88,51.88a7.32,7.32,0,0,1-6.26,8.23A6.33,6.33,0,0,1,210.23,280.67Z"/><path class="cls-3" d="M216.86,230.67H112.92a8.38,8.38,0,0,1,0-16.75H216.86a8.38,8.38,0,0,1,0,16.75Z"/><path class="cls-4" d="M152.58,136.16a14.17,14.17,0,0,0-8.3-6.42,15.3,15.3,0,0,0-6.53,0,47.58,47.58,0,0,1,4-7.14,29.1,29.1,0,0,1,2.51-2.58c.71-.46,1.43-.9,2.18-1.3,6.43-3.43,8.93-13,5-19.12a14.15,14.15,0,0,0-19-5c-8.92,4.75-15.36,13.36-19.33,22.53-3.49,8.06-6.88,20.53-16.89,35.73-1.89,2.72-4.09,6.68-4.09,9.81a14.21,14.21,0,0,0,4.07,9.88c2.65,2.45,6.12,4.26,9.82,4.1l3.69-.5a13.91,13.91,0,0,0,4.67-2.32c-.41,5.24,1.93,10.72,6.73,13.28,6.6,3.5,15.15,1.76,19-5A133.4,133.4,0,0,0,154,146.93,14.75,14.75,0,0,0,152.58,136.16Z"/><path class="cls-4" d="M174.05,136.16a14.17,14.17,0,0,1,8.3-6.42,15.34,15.34,0,0,1,6.54,0,49,49,0,0,0-4-7.14,31.66,31.66,0,0,0-2.56-2.62c-.7-.46-1.43-.9-2.18-1.3-6.43-3.43-8.93-13-5-19.12a14.14,14.14,0,0,1,19-5c8.92,4.75,15.72,11.57,19.68,20.74,3.49,8.06,8.12,27.22,16.54,37.52,2.1,2.57,4.07,6.73,4.07,9.88a14.21,14.21,0,0,1-4.07,9.88c-2.64,2.45-6.12,4.26-9.82,4.1l-3.69-.5a13.77,13.77,0,0,1-4.66-2.32c.4,5.24-1.93,10.72-6.74,13.28-6.6,3.5-15.15,1.76-19-5A133.53,133.53,0,0,1,172.59,147,14.83,14.83,0,0,1,174.05,136.16Z"/><path class="cls-5" d="M138.86,166.88h50.75V186a33,33,0,0,0,3,16.95L197.36,213a2.39,2.39,0,0,1-2.15,3.42H135a2.41,2.41,0,0,1-2.38-2.41,2.46,2.46,0,0,1,.15-.8L137,201.56a32.83,32.83,0,0,0,1.89-13.75Z"/><path class="cls-6" d="M137,202.56l-4.25,11.66a2.38,2.38,0,0,0,.18,2h64.43a2.39,2.39,0,0,0,.09-2.22l-4.75-10.06a33.07,33.07,0,0,1-2.6-8.05H138.63A33.39,33.39,0,0,1,137,202.56Z"/><path class="cls-7" d="M218.33,129.79c0,27.63-24.28,50-54.22,50s-54.22-22.39-54.22-50,24.27-50,54.22-50S218.33,102.17,218.33,129.79Z"/><path class="cls-8" d="M142.11,111.93h-.35l-5.12-1.47a1.28,1.28,0,0,1-.87-1.57,1.25,1.25,0,0,1,1.55-.87h0l5.12,1.46a1.28,1.28,0,0,1,.87,1.57A1.27,1.27,0,0,1,142.11,111.93Z"/><path class="cls-8" d="M136.72,115.29a1.27,1.27,0,0,1,0-2.54l5.33-.07h0a1.28,1.28,0,0,1,1.28,1.26,1.25,1.25,0,0,1-1.24,1.28h0l-5.33.07Z"/><path class="cls-8" d="M186.27,111.93a1.27,1.27,0,0,1-.35-2.49l5.13-1.46a1.27,1.27,0,0,1,1.56.86h0a1.28,1.28,0,0,1-.87,1.57l-5.13,1.47A1.32,1.32,0,0,1,186.27,111.93Z"/><path class="cls-8" d="M191.65,115.29h0l-5.32-.07a1.25,1.25,0,0,1-1.25-1.27h0a1.32,1.32,0,0,1,1.25-1.27l5.33.07a1.27,1.27,0,0,1,0,2.54Z"/><path class="cls-7" d="M140.26,120.67h47.07L178.53,134l-30.91-1.48Z"/><path class="cls-7" d="M161.33,86.76a4.66,4.66,0,0,1-4.61-4.17,30.53,30.53,0,0,1,4.09-18.77,4.62,4.62,0,0,1,6.32-1.64l.05,0a4.69,4.69,0,0,1,1.6,6.41,21.05,21.05,0,0,0-2.82,13,4.67,4.67,0,0,1-4.12,5.15Z"/><path class="cls-7" d="M167.13,88.83h-.4a4.67,4.67,0,0,1-4.24-5.06,16.08,16.08,0,0,1,8.06-12.54,4.63,4.63,0,0,1,6.3,1.78l0,0a4.69,4.69,0,0,1-1.8,6.36,6.68,6.68,0,0,0-3.32,5.16A4.66,4.66,0,0,1,167.13,88.83Z"/><path class="cls-4" d="M165.22,139.56c-17.57,0-24.46-12.25-24.75-12.78a5,5,0,0,1,2-6.75,4.92,4.92,0,0,1,6.69,1.92h0c.23.4,4.64,7.66,16.1,7.66,1.14,0,11.19-.2,13.91-7a4.89,4.89,0,0,1,6.21-3l.1,0a5,5,0,0,1,3,6.4h0C188.21,126.67,183.39,139.56,165.22,139.56Z"/><path class="cls-8" d="M165.22,135.93c-15.46,0-21.34-10.45-21.59-10.89a1.34,1.34,0,1,1,2.35-1.3h0c.22.4,5.43,9.5,19.24,9.5s17.24-9.21,17.27-9.31a1.34,1.34,0,1,1,2.53.91C184.86,125.3,180.88,135.93,165.22,135.93Z"/><path class="cls-8" d="M154.33,120.27a9.39,9.39,0,0,1-9.35-9.4,1.34,1.34,0,0,1,1.34-1.34,1.33,1.33,0,0,1,1.34,1.33h0a6.67,6.67,0,0,0,13.34,0h0a1.34,1.34,0,0,1,1.34-1.34,1.33,1.33,0,0,1,1.34,1.33h0A9.4,9.4,0,0,1,154.33,120.27Z"/><path class="cls-8" d="M174.33,120.27a9.38,9.38,0,0,1-9.34-9.4,1.34,1.34,0,0,1,1.34-1.34,1.33,1.33,0,0,1,1.34,1.33h0a6.67,6.67,0,0,0,13.33.52,4.51,4.51,0,0,0,0-.52,1.34,1.34,0,0,1,1.34-1.34,1.33,1.33,0,0,1,1.34,1.33h0A9.38,9.38,0,0,1,174.33,120.27Z"/><path class="cls-9" d="M223.88,126.22a1.81,1.81,0,0,1-1.8-1.8h0c0-35.74-25.75-64.74-57.31-64.74s-57.31,29-57.31,64.74a1.8,1.8,0,0,1-3.6,0h0c0-37.73,27.32-68.42,60.91-68.42s60.92,30.68,60.92,68.42a1.81,1.81,0,0,1-1.81,1.81Z"/><path class="cls-3" d="M214,91.35a3.79,3.79,0,0,1-3.26-1.86c-10.31-17.45-27.5-27.82-46-27.82s-35.65,10.41-46,27.86a3.8,3.8,0,0,1-5.19,1.34h0a3.83,3.83,0,0,1-1.24-5.27C124,65.8,143.65,54,164.82,54s40.79,11.81,52.49,31.6a3.81,3.81,0,0,1-1.3,5.22,3.85,3.85,0,0,1-2,.54Z"/><path class="cls-10" d="M104.33,142.39a11.74,11.74,0,0,1-.77-23.46"/><path class="cls-8" d="M105.83,145.83a4.66,4.66,0,0,1-4.63-4.65v-21a4.63,4.63,0,1,1,9.26,0v21A4.65,4.65,0,0,1,105.83,145.83Z"/><path class="cls-10" d="M224.66,142.39a11.74,11.74,0,0,0,.78-23.46"/><path class="cls-8" d="M223.18,145.83a4.65,4.65,0,0,0,4.63-4.65v-21a4.63,4.63,0,1,0-9.26,0h0v21A4.65,4.65,0,0,0,223.18,145.83Z"/><path class="cls-7" d="M154.24,280.56a5,5,0,0,1-5-5.07V211.25a5,5,0,0,1,10.08,0v64.24a5.07,5.07,0,0,1-5,5.07Z"/><path class="cls-6" d="M154.24,206.18a5,5,0,0,0-5,5.07V240.9h10.09V211.25a5.07,5.07,0,0,0-5.05-5.07Z"/><path class="cls-10" d="M149.2,256v19.46a5,5,0,1,0,10.08,0V256Z"/><path class="cls-8" d="M136.38,280.67h21.15a2.31,2.31,0,0,0,2.3-2.32h0v-5.24H136.38a3.78,3.78,0,0,0,0,7.56Z"/><path class="cls-7" d="M172.33,280.56a5,5,0,0,1-5-5.07V211.25a5,5,0,1,1,10.07,0v64.24a5,5,0,0,1-4.93,5.07Z"/><path class="cls-6" d="M172.33,206.18a5,5,0,0,0-5,5.07V240.9h10V211.25a5,5,0,0,0-4.93-5.07Z"/><path class="cls-10" d="M167.24,256v19.46a5,5,0,0,0,10.07,0V256Z"/><path class="cls-8" d="M190.13,280.67H169a2.32,2.32,0,0,1-2.31-2.32v-5.24h23.45a3.78,3.78,0,1,1,0,7.56Z"/><path class="cls-7" d="M131.74,218.9c-3.33,0-6.59-1.47-9.3-5.77-6.78-10.76,4.67-24.52,17.94-40.45,1.62-2,3.26-3.92,4.88-5.9a3.84,3.84,0,0,1,5.38-.7,3.39,3.39,0,0,1,.45.4,5,5,0,0,1,.26,6.5c-1.63,2-3.29,4-4.93,6-8.52,10.22-20.18,24.22-17.23,28.89,1.83,2.91,3.75,2.6,11.43-1.87,7.07-4.11,17.76-10.32,25.18,3a4.91,4.91,0,0,1-1.32,6.34,3.89,3.89,0,0,1-5.4-1,3.77,3.77,0,0,1-.28-.48c-3-5.32-5.73-4.71-14.37.31C140.85,216.21,136.23,218.9,131.74,218.9Z"/><path class="cls-7" d="M197.08,218.9c-4.5,0-9.12-2.69-12.69-4.77-8.65-5-11.41-5.63-14.38-.31a3.88,3.88,0,0,1-5.2,1.75,2.87,2.87,0,0,1-.48-.28A4.92,4.92,0,0,1,163,209c7.43-13.31,18.11-7.09,25.18-3,7.68,4.47,9.6,4.78,11.44,1.87,2.94-4.67-8.72-18.67-17.23-28.89l-4.94-6a5,5,0,0,1,.27-6.5,3.82,3.82,0,0,1,5.4-.17,4.69,4.69,0,0,1,.42.47c1.62,2,3.26,4,4.88,5.9,13.27,15.93,24.73,29.69,17.94,40.45C203.66,217.43,200.41,218.9,197.08,218.9Z"/><path class="cls-11" d="M263.74,99.25c-2.92-4.84-10.5-.41-7.56,4.45a52.45,52.45,0,0,1,2.71,49.57c-2.42,5.09,5.14,9.57,7.57,4.45A61.66,61.66,0,0,0,263.74,99.25Z"/><path class="cls-11" d="M251.33,110.51c-2.12-5.17-10.6-2.91-8.45,2.34a39.62,39.62,0,0,1,.06,31c-2.13,5.25,6.34,7.53,8.45,2.34A46.91,46.91,0,0,0,251.33,110.51Z"/><path class="cls-11" d="M65.26,99.25c2.93-4.84,10.51-.41,7.57,4.45a52.42,52.42,0,0,0-2.71,49.57c2.42,5.09-5.14,9.57-7.57,4.45A61.63,61.63,0,0,1,65.26,99.25Z"/><path class="cls-11" d="M77.17,110.51c2.12-5.17,10.6-2.91,8.45,2.34a39.71,39.71,0,0,0-.06,31c2.13,5.25-6.34,7.53-8.45,2.34A47,47,0,0,1,77.17,110.51Z"/></svg>