<svg width="1440" height="820" viewBox="0 0 1440 820" fill="none" xmlns="http://www.w3.org/2000/svg">
<path d="M0 0H1440V820H0V0Z" fill="#FAF6F4"/>
<mask id="mask0" mask-type="alpha" maskUnits="userSpaceOnUse" x="0" y="449" width="700" height="371">
<path d="M0 449H700V820H0V449Z" fill="#413D45"/>
</mask>
<g mask="url(#mask0)">
<path d="M223.095 606.868C181.127 607.093 118.229 607.733 81.16 608.134C58.4713 608.374 41.0465 586.108 48.3557 564.402C50.6388 557.626 55.1258 552.468 63.2278 551.314C79.3842 549.023 92.3537 561.39 92.3537 561.39C92.3537 561.39 87.0264 509.873 131.31 512.772C160.245 514.662 162.211 563.921 162.211 563.921C162.211 563.921 161.91 532.059 187.437 531.29C211.029 530.585 208.794 570.649 208.794 570.649C208.794 570.649 223.206 553.781 237.904 559.724C243.104 561.823 246.339 565.811 248.273 570.617C255.265 587.95 241.598 606.772 223.095 606.868Z" fill="white"/>
<path d="M354.661 542.609C181.98 542.609 34.1558 649.184 -26.9514 800.273C-30.6993 809.543 -23.9438 819.693 -13.953 819.693H723.286C733.277 819.693 740.032 809.543 736.284 800.273C675.177 649.184 527.354 542.609 354.661 542.609Z" fill="#FFEFA3"/>
<path d="M354.506 595.031C216.723 595.031 98.7737 680.135 50.016 800.785C47.0254 808.187 52.4157 816.292 60.3874 816.292H648.634C656.606 816.292 661.996 808.187 659.005 800.785C610.248 680.135 492.298 595.031 354.506 595.031Z" fill="#FFE14F"/>
<path d="M356.233 648.755C242.602 648.755 145.041 717.777 102.946 816.292H609.512C567.426 717.777 469.865 648.755 356.233 648.755Z" fill="#FFCE00"/>
<path d="M356.234 711.749C276.234 711.749 206.388 755.299 168.938 820.037H543.52C506.079 755.299 436.233 711.749 356.234 711.749Z" fill="#F47D31"/>
<path d="M319.365 738.837C321.62 745.209 327.682 749.768 334.809 749.768C341.935 749.768 347.998 745.209 350.252 738.837" stroke="#413D45" stroke-width="6" stroke-miterlimit="10" stroke-linecap="round" stroke-linejoin="round"/>
<path d="M365.687 738.837C367.941 745.209 374.004 749.768 381.13 749.768C388.257 749.768 394.32 745.209 396.574 738.837" stroke="#413D45" stroke-width="6" stroke-miterlimit="10" stroke-linecap="round" stroke-linejoin="round"/>
<path d="M287.032 751.154C305.73 768.384 330.673 778.914 358.069 778.914C385.466 778.914 410.408 768.393 429.106 751.154" stroke="#413D45" stroke-width="6" stroke-miterlimit="10" stroke-linecap="round" stroke-linejoin="round"/>
<path d="M34.5585 825.309L87.4047 806.121C110.257 806.121 128.8 787.596 128.8 764.729C128.8 741.879 110.273 723.353 87.4047 723.353C82.8144 723.353 78.4064 724.132 74.2801 725.508C67.7344 711.29 53.3836 701.415 36.7128 701.415C27.7974 701.415 19.5448 704.265 12.8003 709.07C1.33289 699.824 -13.2334 694.256 -29.1253 694.256C-66.063 694.256 -95.9909 724.199 -95.9909 761.117C-95.9909 762.326 -95.8749 763.519 -95.8086 764.729C-108.834 772.5 -117.6 786.701 -117.6 802.973C-117.6 811.059 -115.413 818.632 -111.651 825.16H45.3796" fill="#FAF6F4"/>
<path d="M237.682 804.956C224.168 797.171 208.145 807.581 208.145 807.581C208.145 807.581 213.669 784.87 189.039 774.226C164.41 763.582 152.293 781.622 152.293 781.622C152.293 781.622 142.08 739.703 108.492 747.689C74.9045 755.675 77.5458 799.095 77.5458 799.095C77.5458 799.095 64.6807 776.962 43.8478 788.896C29.497 797.126 27.4391 812.308 28.1104 825.309H252C251.813 816.745 247.499 810.617 237.682 804.956Z" fill="white"/>
<path d="M526.628 795.749C546.224 784.441 569.458 799.561 569.458 799.561C569.458 799.561 561.447 766.576 597.16 751.117C632.873 735.658 650.442 761.859 650.442 761.859C650.442 761.859 665.251 700.977 713.953 712.575C762.656 724.173 758.826 787.236 758.826 787.236C758.826 787.236 777.48 755.091 807.688 772.423C828.497 784.377 831.481 806.426 830.507 825.309H505.867C506.138 812.871 512.394 803.971 526.628 795.749Z" fill="#FAF6F4"/>
<path d="M556.452 639.093C585.715 639.247 629.57 639.687 655.416 639.962C671.236 640.127 683.385 624.846 678.289 609.949C676.697 605.299 673.569 601.759 667.92 600.968C656.655 599.396 647.612 607.883 647.612 607.883C647.612 607.883 651.326 572.528 620.45 574.517C600.274 575.815 598.903 609.62 598.903 609.62C598.903 609.62 599.113 587.754 581.315 587.226C564.865 586.742 566.424 614.237 566.424 614.237C566.424 614.237 556.375 602.661 546.127 606.739C542.501 608.18 540.246 610.917 538.897 614.215C534.022 626.11 543.551 639.027 556.452 639.093Z" fill="white"/>
</g>
</svg>
