<svg id="Layer_1" data-name="Layer 1" xmlns="http://www.w3.org/2000/svg" viewBox="0 0 1920 424"><defs><style>.cls-1{fill:#413d45;}.cls-2{fill:#f47d31;}</style></defs><title>headspace_logo_primary</title><path class="cls-1" d="M517.89,88.45h32.17v89.71c13.3-19.49,30.94-29.08,52.59-29.08,29.39,0,46.1,16.09,46.1,48.57V307.48H616.57V206c0-22.28-8.35-28.46-24.44-28.46-9.9,0-19.49,5.87-28.46,17.63s-13.61,27.22-13.61,46.41v65.89H517.89Z"/><path class="cls-1" d="M812.12,238.49H701.67c0,24.44,14.23,43,38.67,43,17.33,0,33.1-9.9,40.84-26.29L808.71,266c-15.78,30.63-34,43.93-68.37,43.93-51.35,0-72.7-43.31-72.7-80.43s21.35-80.44,72.7-80.44c49.81,0,71.78,40.53,71.78,75.49ZM702.29,211.58h75.8c-2.79-19.49-15.78-34-37.75-34C719.62,177.55,706,191.47,702.29,211.58Z"/><path class="cls-1" d="M1064.64,149.08c7.73,0,15.47,2.17,23.82,6.19s14.23,8.35,18,13.61V88.45h32.17v219h-32.17V289.54C1100.53,299.75,1082.89,310,1064,310c-45.47,0-69.61-29.69-69.61-80.43C994.41,180,1018.85,149.08,1064.64,149.08Zm-36.2,80.44q0,23.67,11.14,38,11.14,13.92,28.77,13.92t28.77-13.92q11.14-14.38,11.14-38c0-15.78-3.71-28.46-11.14-37.74-7.42-9.59-17-14.23-28.77-14.23s-21.34,4.64-28.77,14.23C1032.16,201.06,1028.44,213.74,1028.44,229.52Z"/><path class="cls-1" d="M1261.89,173.83l-20.41,17.95c-7.43-9.59-16.4-14.23-27.23-14.23-8.66,0-15.47,5.56-15.47,15.46a13.35,13.35,0,0,0,4,9.59c5.26,5.26,10.52,7.74,23.83,12.69,10.82,4,15.46,5.57,24.13,11.45,12.37,7.42,18.25,16.7,19.49,33.72a47.19,47.19,0,0,1-14.85,35.26c-9.9,9.59-22.9,14.23-39.29,14.23-29.7,0-50.74-19.18-60.33-41.76L1183,253.34c8.35,18.87,19.79,28.15,34.34,28.15,13.92,0,21-6.8,21-20.42,0-5.25-2.16-9-8-12.37a41.36,41.36,0,0,0-8-4.33c-4.64-2.17-16.09-6.19-21-8.35q-33.42-13.92-33.41-42.7a41.22,41.22,0,0,1,13.61-31.24q13.45-13,34.34-13A55.13,55.13,0,0,1,1261.89,173.83Z"/><path class="cls-1" d="M1365.08,310c-18.26,0-34-8.66-41.77-19.79v80.43h-32.17v-219h32.17V169.5c5.88-10.21,23.51-20.42,42.39-20.42,45.47,0,69.6,29.7,69.6,80.44C1435.3,279,1410.86,310,1365.08,310Zm36.19-80.43c0-15.78-3.71-28.46-11.13-37.74-7.43-9.59-17-14.23-28.78-14.23s-21.34,4.64-28.77,14.23c-7.42,9.28-11.13,22-11.13,37.74s3.71,28.46,11.13,38q11.15,13.92,28.77,13.92t28.78-13.92Q1401.27,253.19,1401.27,229.52Z"/><path class="cls-1" d="M1754.06,267c-12.68,28.77-35,43-67.44,43-23.51,0-41.77-7.73-54.45-22.89-12.68-15.47-18.87-34.65-18.87-57.54s6.19-42.07,18.87-57.23c12.68-15.47,30.94-23.21,54.45-23.21,32.48,0,54.76,14.24,67.44,43l-28.77,12.37c-8-17.94-21-26.91-38.67-26.91-26.3,0-39.29,20.72-39.29,52s13,52,39.29,52c17.63,0,30.62-9,38.67-26.91Z"/><path class="cls-1" d="M1910,238.49H1799.56c0,24.44,14.23,43,38.67,43a45,45,0,0,0,40.83-26.29L1906.6,266c-15.78,30.63-34,43.93-68.37,43.93-51.36,0-72.7-43.31-72.7-80.43s21.34-80.44,72.7-80.44c49.81,0,71.77,40.53,71.77,75.49Zm-109.83-26.91H1876c-2.78-19.49-15.78-34-37.74-34C1817.5,177.55,1803.89,191.47,1800.17,211.58Z"/><path class="cls-1" d="M900.38,149.24c7.74,0,15.48,2.17,23.84,6.19s14.24,8.36,18,13.63v-17.5h32.19V307.74H947.52l-5.34-17.95c-5.89,10.21-23.53,20.43-42.41,20.43-45.51,0-69.66-29.72-69.66-80.49C830.11,180.2,854.57,149.24,900.38,149.24Zm-36.22,80.49q0,23.69,11.15,38.08,11.15,13.94,28.79,13.93t28.79-13.93Q944,253.41,944,229.73c0-15.79-3.71-28.48-11.14-37.77-7.43-9.59-17-14.24-28.79-14.24s-21.36,4.65-28.79,14.24C867.88,201.25,864.16,213.94,864.16,229.73Z"/><path class="cls-1" d="M1520.71,149.24c7.74,0,15.48,2.17,23.84,6.19s14.24,8.36,18,13.63v-17.5h32.19V307.74h-26.85l-5.34-17.95c-5.89,10.21-23.53,20.43-42.41,20.43-45.51,0-69.66-29.72-69.66-80.49C1450.44,180.2,1474.9,149.24,1520.71,149.24Zm-36.22,80.49q0,23.69,11.15,38.08,11.14,13.94,28.79,13.93t28.79-13.93q11.15-14.4,11.14-38.08c0-15.79-3.71-28.48-11.14-37.77-7.43-9.59-17-14.24-28.79-14.24s-21.36,4.65-28.79,14.24C1488.21,201.25,1484.49,213.94,1484.49,229.73Z"/><path class="cls-2" d="M418.11,209.64c4.75,66.19-26,103.74-44.53,130-28.84,30.4-65.37,71.85-158.18,74.17C136.68,416.92,98,382.3,65.52,352.23,23.18,305.69,12.12,278.15,10,209.64c-.2-42,16-83.92,44.31-120.8C94,32.79,157.11,14,215.4,10.13c61.16-2.37,109.8,28.47,143,61.7,42.5,44.81,55.55,83.29,59.68,137.81"/></svg>