<svg xmlns="http://www.w3.org/2000/svg" viewBox="0 0 1920 424" width="1920" height="424">
	<style>
		tspan { white-space:pre }
		.shp0 { fill: #413d45 } 
		.shp1 { fill: #f47d31 } 
	</style>
	<path id="Layer" class="shp0" d="M517.89 88.45L550.06 88.45L550.06 178.16C563.36 158.67 581 149.08 602.65 149.08C632.04 149.08 648.75 165.17 648.75 197.65L648.75 307.48L616.57 307.48L616.57 206C616.57 183.72 608.22 177.54 592.13 177.54C582.23 177.54 572.64 183.41 563.67 195.17C554.7 206.93 550.06 222.39 550.06 241.58L550.06 307.47L517.89 307.47L517.89 88.45Z" />
	<path id="Layer" fill-rule="evenodd" class="shp0" d="M812.12 238.49L701.67 238.49C701.67 262.93 715.9 281.49 740.34 281.49C757.67 281.49 773.44 271.59 781.18 255.2L808.71 266C792.93 296.63 774.71 309.93 740.34 309.93C688.99 309.93 667.64 266.62 667.64 229.5C667.64 192.38 688.99 149.06 740.34 149.06C790.15 149.06 812.12 189.59 812.12 224.55L812.12 238.49ZM702.29 211.58L778.09 211.58C775.3 192.09 762.31 177.58 740.34 177.58C719.62 177.55 706 191.47 702.29 211.58Z" />
	<path id="Layer" fill-rule="evenodd" class="shp0" d="M1064.64 149.08C1072.37 149.08 1080.11 151.25 1088.46 155.27C1096.81 159.29 1102.69 163.62 1106.46 168.88L1106.46 88.45L1138.63 88.45L1138.63 307.45L1106.46 307.45L1106.46 289.54C1100.53 299.75 1082.89 310 1064 310C1018.53 310 994.39 280.31 994.39 229.57C994.41 180 1018.85 149.08 1064.64 149.08ZM1028.44 229.52C1028.44 245.3 1032.15 257.97 1039.58 267.52C1047.01 276.8 1056.6 281.44 1068.35 281.44C1080.1 281.44 1089.69 276.8 1097.12 267.52C1104.55 257.93 1108.26 245.27 1108.26 229.52C1108.26 213.74 1104.55 201.06 1097.12 191.78C1089.7 182.19 1080.12 177.55 1068.35 177.55C1056.58 177.55 1047.01 182.19 1039.58 191.78C1032.16 201.06 1028.44 213.74 1028.44 229.52Z" />
	<path id="Layer" class="shp0" d="M1578.89 174.83L1558.48 192.78C1551.05 183.19 1542.08 178.55 1531.25 178.55C1522.59 178.55 1515.78 184.11 1515.78 194.01C1515.78 194.9 1515.86 195.79 1516.03 196.66C1516.21 197.53 1516.47 198.39 1516.81 199.21C1517.15 200.03 1517.58 200.82 1518.07 201.55C1518.57 202.29 1519.14 202.98 1519.78 203.6C1525.04 208.86 1530.3 211.34 1543.61 216.29C1554.43 220.29 1559.07 221.86 1567.74 227.74C1580.11 235.16 1585.99 244.44 1587.23 261.46C1587.29 264.75 1587.01 268.03 1586.39 271.25C1585.77 274.48 1584.81 277.63 1583.54 280.66C1582.26 283.69 1580.68 286.58 1578.8 289.28C1576.93 291.97 1574.77 294.47 1572.38 296.72C1562.48 306.31 1549.48 310.95 1533.09 310.95C1503.39 310.95 1482.35 291.77 1472.76 269.19L1500 254.34C1508.35 273.21 1519.79 282.49 1534.34 282.49C1548.26 282.49 1555.34 275.69 1555.34 262.07C1555.34 256.82 1553.18 253.07 1547.34 249.7C1546.72 249.27 1546.08 248.85 1545.43 248.45C1544.79 248.06 1544.13 247.68 1543.46 247.31C1542.79 246.95 1542.11 246.61 1541.43 246.29C1540.74 245.96 1540.04 245.66 1539.34 245.37C1534.7 243.2 1523.25 239.18 1518.34 237.02C1496.06 227.74 1484.92 213.51 1484.93 194.32C1484.89 191.39 1485.15 188.46 1485.73 185.59C1486.3 182.72 1487.19 179.91 1488.36 177.23C1489.53 174.54 1490.98 171.99 1492.69 169.61C1494.4 167.23 1496.36 165.04 1498.54 163.08C1507.51 154.41 1518.95 150.08 1532.88 150.08C1537.42 150.08 1541.95 150.64 1546.35 151.75C1550.75 152.86 1555 154.51 1559 156.66C1563 158.81 1566.72 161.45 1570.07 164.51C1573.43 167.57 1576.39 171.04 1578.89 174.83L1578.89 174.83Z" />
	<path id="Layer" class="shp0" d="M1300.06 267C1287.38 295.77 1265.06 310 1232.62 310C1209.11 310 1190.85 302.27 1178.17 287.11C1165.49 271.64 1159.3 252.46 1159.3 229.57C1159.3 206.68 1165.49 187.5 1178.17 172.34C1190.85 156.87 1209.11 149.13 1232.62 149.13C1265.1 149.13 1287.38 163.37 1300.06 192.13L1271.29 204.5C1263.29 186.56 1250.29 177.59 1232.62 177.59C1206.32 177.59 1193.33 198.31 1193.33 229.59C1193.33 260.87 1206.33 281.59 1232.62 281.59C1250.25 281.59 1263.24 272.59 1271.29 254.68L1300.06 267Z" />
	<path id="Layer" fill-rule="evenodd" class="shp0" d="M1744 238.49L1633.56 238.49C1633.56 262.93 1647.79 281.49 1672.23 281.49C1676.51 281.48 1680.77 280.86 1684.88 279.65C1688.98 278.44 1692.9 276.64 1696.5 274.33C1700.1 272.01 1703.35 269.19 1706.15 265.95C1708.95 262.71 1711.28 259.09 1713.06 255.2L1740.6 266C1724.82 296.63 1706.6 309.93 1672.23 309.93C1620.87 309.93 1599.53 266.62 1599.53 229.5C1599.53 192.38 1620.87 149.06 1672.23 149.06C1722.04 149.06 1744 189.59 1744 224.55L1744 238.49ZM1634.17 211.58L1710 211.58C1707.22 192.09 1694.22 177.58 1672.26 177.58C1651.5 177.55 1637.89 191.47 1634.17 211.58Z" />
	<path id="Layer" fill-rule="evenodd" class="shp0" d="M900.38 149.24C908.12 149.24 915.86 151.41 924.22 155.43C932.58 159.45 938.46 163.79 942.22 169.06L942.22 151.56L974.41 151.56L974.41 307.74L947.52 307.74L942.18 289.79C936.29 300 918.65 310.22 899.77 310.22C854.26 310.22 830.11 280.5 830.11 229.73C830.11 180.2 854.57 149.24 900.38 149.24ZM875.31 267.81C882.74 277.1 892.34 281.75 904.1 281.74C915.86 281.73 925.46 277.09 932.89 267.81C940.3 258.21 944 245.52 944 229.73C944 213.94 940.29 201.25 932.86 191.96C925.43 182.37 915.86 177.72 904.07 177.72C892.28 177.72 882.71 182.37 875.28 191.96C867.88 201.25 864.16 213.94 864.16 229.73C864.16 245.52 867.88 258.22 875.31 267.81Z" />
	<path id="Layer" fill-rule="evenodd" class="shp0" d="M1384.71 149.24C1392.45 149.24 1400.19 151.41 1408.55 155.43C1416.91 159.45 1422.79 163.79 1426.55 169.06L1426.55 151.56L1458.74 151.56L1458.74 307.74L1431.89 307.74L1426.55 289.79C1420.66 300 1403.02 310.22 1384.14 310.22C1338.63 310.22 1314.48 280.5 1314.48 229.73C1314.44 180.2 1338.9 149.24 1384.71 149.24ZM1359.64 267.81C1367.07 277.1 1376.66 281.75 1388.43 281.74C1400.2 281.73 1409.79 277.09 1417.22 267.81C1424.65 258.21 1428.37 245.52 1428.36 229.73C1428.36 213.94 1424.65 201.25 1417.22 191.96C1409.79 182.37 1400.22 177.72 1388.43 177.72C1376.64 177.72 1367.07 182.37 1359.64 191.96C1352.21 201.25 1348.49 213.94 1348.49 229.73C1348.49 245.52 1352.21 258.22 1359.64 267.81Z" />
	<path id="Layer" class="shp1" d="M418.11 209.64C422.86 275.83 392.11 313.38 373.58 339.64C344.74 370.04 308.21 411.49 215.4 413.81C136.68 416.92 98 382.3 65.52 352.23C23.18 305.69 12.12 278.15 10 209.64C9.8 167.64 26 125.72 54.31 88.84C94 32.79 157.11 14 215.4 10.13C276.56 7.76 325.2 38.6 358.4 71.83C400.9 116.64 413.95 155.12 418.08 209.64" />
</svg>