<svg xmlns="http://www.w3.org/2000/svg" xmlns:xlink="http://www.w3.org/1999/xlink" width="2546" height="1492" viewBox="0 0 2546 1492">
  <defs>
    <path id="hero-background-a" d="M1454.52001,424.649217 C1450.13612,429.390199 1448.36472,435.990438 1449.79037,442.290045 C1451.2128,448.590456 1455.64654,453.786406 1461.64583,456.186639 L1826.98461,602.292986 L1597.73604,827.360247 C1593.07876,831.934034 1590.99939,838.520608 1592.18864,844.93677 C1593.3811,851.352932 1597.68216,856.760288 1603.6694,859.361479 L2096.75516,1073.51194 L2059.09894,1145.6797 C2055.79414,1153.71397 2056.79282,1162.8744 2061.74921,1170.01079 C2064.11725,1173.41742 2067.2347,1176.13918 2070.79198,1178.02255 C2074.68135,1180.08277 2079.09579,1181.1382 2083.63246,1180.98547 L2404.26316,1175.43021 C2413.58816,1175.11671 2422.00454,1169.75517 2426.22761,1161.43796 C2430.45148,1153.12074 2429.81223,1143.16612 2424.56074,1135.4558 L2248.60146,863.749581 C2243.30172,855.968517 2234.15764,851.722693 2224.79243,852.697737 C2215.42642,853.675997 2207.35177,859.711144 2203.77117,868.417415 L2165.36634,942.020006 L1837.28255,799.52928 L2070.92224,570.152692 C2075.65269,565.508169 2077.7192,558.789768 2076.41336,552.291615 C2075.10993,545.794266 2070.61347,540.392536 2064.45899,537.930408 L1689.79923,388.095903 L1903.59163,156.808613 C1907.72384,152.340129 1909.5467,146.206111 1908.52873,140.206332 C1907.50915,134.204946 1903.7621,129.01623 1898.38356,126.16103 L1444.85166,-114.708703 C1440.25308,-117.149931 1434.87294,-117.661167 1429.89563,-116.142734 C1424.91914,-114.619478 1420.74994,-111.181502 1418.30712,-106.584405 L1367.29903,-10.6008067 C1362.21157,-1.03042017 1365.85006,10.8509744 1375.42514,15.935192 L1681.87576,178.690443 L1454.52001,424.649217 Z"/>
  </defs>
  <g fill="none" fill-rule="evenodd">
    <rect width="2533" height="1492" fill="#FCF5EB"/>
    <path fill="#F7EDDF" d="M1105.5853,741.34742 L1123.7458,729.907158 C1162.22298,705.665541 1173.87306,654.349977 1149.63067,615.871946 L1090.33512,521.746649 L1184.45871,462.448629 C1222.9383,438.208619 1234.58838,386.893055 1210.34679,348.414221 L1198.90654,330.254514 C1174.66576,291.774875 1123.34945,280.126389 1084.86985,304.367203 L990.746268,363.665224 L931.448314,269.538319 C907.209135,231.061092 855.892825,219.412606 817.414034,243.652616 L799.253543,255.092878 C795.718562,257.319829 792.491495,259.84344 789.41718,262.496488 L761.505545,336.080766 C763.008132,347.504949 766.850223,358.782812 773.366261,369.127285 L832.664215,463.253386 L738.53822,522.550603 C700.06184,546.791416 688.41176,598.10698 712.65335,636.585011 L724.092795,654.745522 C748.334385,693.224356 799.649891,704.873646 838.127075,680.632029 L932.252266,621.335616 L991.551025,715.460913 C1015.79101,753.938943 1067.10651,765.587429 1105.5853,741.34742" transform="rotate(90 961.5 492.5)"/>
    <path fill="#F7EDDF" d="M753.055015,1031.53336 C569.273533,1176.19469 582.080683,868.719253 351.781192,860.630818 C121.480093,852.541579 310.482073,1222.29861 310.482073,1222.29861 C359.134607,1356.35643 480.508174,1437.83299 536.529404,1432.22829 C709.275536,1414.94334 671.656744,1233.46943 798.225072,1213.11575 C1013.03438,1178.56835 936.83891,886.873635 753.055015,1031.53336" transform="rotate(90 583 1146.5)"/>
    <path fill="#F7EDDF" d="M291.780383,640.600913 C453.672906,648.989771 592.208676,524.107682 600.600762,362.220186 C608.991239,200.327059 484.1098,61.7914591 322.216474,53.399384 C160.326365,45.007309 21.791398,169.889398 13.3993126,331.782525 C5.00803152,493.672434 129.88947,632.208838 291.780383,640.600913" transform="rotate(90 307 347)"/>
    <path fill="#F7EDDF" d="M1873.78038,1377.60091 C2035.67291,1385.98977 2174.20868,1261.10768 2182.60076,1099.22019 C2190.99124,937.327059 2066.1098,798.791459 1904.21647,790.399384 C1742.32636,782.007309 1603.7914,906.889398 1595.39931,1068.78252 C1587.00803,1230.67243 1711.88947,1369.20884 1873.78038,1377.60091" transform="rotate(90 1889 1084)"/>
    <use fill="#F7EDDF" transform="rotate(90 1897 532)" xlink:href="#hero-background-a"/>
  </g>
</svg>
